<svg width="24" height="25" viewBox="0 0 24 25" fill="none" xmlns="http://www.w3.org/2000/svg">
<path d="M10.5 6.5H9.5C9.22386 6.5 9 6.72386 9 7V8C9 8.27614 9.22386 8.5 9.5 8.5H10.5C10.7761 8.5 11 8.27614 11 8V7C11 6.72386 10.7761 6.5 10.5 6.5Z" fill="#1E1E1E"/>
<path d="M14.5 6.5H13.5C13.2239 6.5 13 6.72386 13 7V8C13 8.27614 13.2239 8.5 13.5 8.5H14.5C14.7761 8.5 15 8.27614 15 8V7C15 6.72386 14.7761 6.5 14.5 6.5Z" fill="#1E1E1E"/>
<path d="M10.5 10H9.5C9.22386 10 9 10.2239 9 10.5V11.5C9 11.7761 9.22386 12 9.5 12H10.5C10.7761 12 11 11.7761 11 11.5V10.5C11 10.2239 10.7761 10 10.5 10Z" fill="#1E1E1E"/>
<path d="M14.5 10H13.5C13.2239 10 13 10.2239 13 10.5V11.5C13 11.7761 13.2239 12 13.5 12H14.5C14.7761 12 15 11.7761 15 11.5V10.5C15 10.2239 14.7761 10 14.5 10Z" fill="#1E1E1E"/>
<path d="M10.5 13.5H9.5C9.22386 13.5 9 13.7239 9 14V15C9 15.2761 9.22386 15.5 9.5 15.5H10.5C10.7761 15.5 11 15.2761 11 15V14C11 13.7239 10.7761 13.5 10.5 13.5Z" fill="#1E1E1E"/>
<path d="M14.5 13.5H13.5C13.2239 13.5 13 13.7239 13 14V15C13 15.2761 13.2239 15.5 13.5 15.5H14.5C14.7761 15.5 15 15.2761 15 15V14C15 13.7239 14.7761 13.5 14.5 13.5Z" fill="#1E1E1E"/>
<path d="M18.25 19.75H17.75V4.5C17.7474 4.30189 17.6676 4.11263 17.5275 3.97253C17.3874 3.83244 17.1981 3.75259 17 3.75H7C6.80189 3.75259 6.61263 3.83244 6.47253 3.97253C6.33244 4.11263 6.25259 4.30189 6.25 4.5V19.75H5.75C5.55109 19.75 5.36032 19.829 5.21967 19.9697C5.07902 20.1103 5 20.3011 5 20.5C5 20.6989 5.07902 20.8897 5.21967 21.0303C5.36032 21.171 5.55109 21.25 5.75 21.25H18.25C18.4489 21.25 18.6397 21.171 18.7803 21.0303C18.921 20.8897 19 20.6989 19 20.5C19 20.3011 18.921 20.1103 18.7803 19.9697C18.6397 19.829 18.4489 19.75 18.25 19.75ZM16.25 19.75H11V17.5C11 17.3674 10.9473 17.2402 10.8536 17.1464C10.7598 17.0527 10.6326 17 10.5 17H9.5C9.36739 17 9.24021 17.0527 9.14645 17.1464C9.05268 17.2402 9 17.3674 9 17.5V19.75H7.75V5.25H16.25V19.75Z" fill="#1E1E1E"/>
</svg>
