<svg width="31" height="31" viewBox="0 0 31 31" fill="none" xmlns="http://www.w3.org/2000/svg">
<path d="M15.5 28C12.6042 27.2708 10.2133 25.6092 8.3275 23.015C6.44167 20.4208 5.49917 17.5408 5.5 14.375V6.75L15.5 3L25.5 6.75V14.375C25.5 17.5417 24.5575 20.4221 22.6725 23.0163C20.7875 25.6104 18.3967 27.2717 15.5 28ZM15.5 25.375C17.5208 24.75 19.2083 23.5154 20.5625 21.6712C21.9167 19.8271 22.7083 17.77 22.9375 15.5H15.5V5.65625L8 8.46875V14.9375C8 15.0833 8.02083 15.2708 8.0625 15.5H15.5V25.375Z" fill="black"/>
</svg>
