<svg width="24" height="24" viewBox="0 0 24 24" fill="none" xmlns="http://www.w3.org/2000/svg">
<path d="M6 21C5.436 21 4.96167 20.8077 4.577 20.423C4.19233 20.0383 4 19.564 4 19V16.23H7V3H20V19C20 19.564 19.8077 20.0383 19.423 20.423C19.0383 20.8077 18.564 21 18 21H6ZM18 20C18.2833 20 18.521 19.904 18.713 19.712C18.905 19.52 19.0007 19.2827 19 19V4H8V16.23H17V19C17 19.2833 17.096 19.521 17.288 19.713C17.48 19.905 17.7173 20.0007 18 20ZM9.385 8.385V7.385H17.615V8.385H9.385ZM9.385 11.154V10.154H17.615V11.154H9.385Z" fill="#1E1E1E"/>
</svg>
