<svg width="24" height="25" viewBox="0 0 24 25" fill="none" xmlns="http://www.w3.org/2000/svg">
<path fill-rule="evenodd" clip-rule="evenodd" d="M2 21.5V7.5C2 5.614 2 4.672 2.586 4.086C3.172 3.5 4.114 3.5 6 3.5H16C16.832 3.5 17.478 3.5 18.004 3.527C16.9031 3.64909 15.8859 4.17293 15.1471 4.99824C14.4083 5.82355 13.9999 6.89234 14 8V11.5L13.901 21.467L11 20.5L8 21.5L5 20.5L2 21.5ZM21 11.5H16V8C16 7.33696 16.2634 6.70107 16.7322 6.23223C17.2011 5.76339 17.837 5.5 18.5 5.5C19.163 5.5 19.7989 5.76339 20.2678 6.23223C20.7366 6.70107 21 7.33696 21 8V11.5ZM4 7.5C4 7.23478 4.10536 6.98043 4.29289 6.79289C4.48043 6.60536 4.73478 6.5 5 6.5H11C11.2652 6.5 11.5196 6.60536 11.7071 6.79289C11.8946 6.98043 12 7.23478 12 7.5C12 7.76522 11.8946 8.01957 11.7071 8.20711C11.5196 8.39464 11.2652 8.5 11 8.5H5C4.73478 8.5 4.48043 8.39464 4.29289 8.20711C4.10536 8.01957 4 7.76522 4 7.5ZM4 11.5C4 11.2348 4.10536 10.9804 4.29289 10.7929C4.48043 10.6054 4.73478 10.5 5 10.5H7C7.26522 10.5 7.51957 10.6054 7.70711 10.7929C7.89464 10.9804 8 11.2348 8 11.5C8 11.7652 7.89464 12.0196 7.70711 12.2071C7.51957 12.3946 7.26522 12.5 7 12.5H5C4.73478 12.5 4.48043 12.3946 4.29289 12.2071C4.10536 12.0196 4 11.7652 4 11.5ZM4 15.5C4 15.2348 4.10536 14.9804 4.29289 14.7929C4.48043 14.6054 4.73478 14.5 5 14.5H9C9.26522 14.5 9.51957 14.6054 9.70711 14.7929C9.89464 14.9804 10 15.2348 10 15.5C10 15.7652 9.89464 16.0196 9.70711 16.2071C9.51957 16.3946 9.26522 16.5 9 16.5H5C4.73478 16.5 4.48043 16.3946 4.29289 16.2071C4.10536 16.0196 4 15.7652 4 15.5Z" fill="#1E1E1E"/>
</svg>
