<svg width="24" height="25" viewBox="0 0 24 25" fill="none" xmlns="http://www.w3.org/2000/svg">
<g clip-path="url(#clip0_154_10)">
<path d="M10.8653 6.84283C10.7475 6.50812 10.5287 6.21821 10.2391 6.0131C9.94959 5.80799 9.60353 5.69778 9.24869 5.69768H7.92012C7.54322 5.69874 7.17996 5.8388 6.89991 6.09104C6.61985 6.34327 6.44269 6.68995 6.40235 7.06469C6.36201 7.43942 6.46133 7.81587 6.68128 8.12193C6.90124 8.42799 7.22637 8.64215 7.5944 8.7234L9.61383 9.16568C10.027 9.25587 10.3923 9.49563 10.6395 9.83885C10.8866 10.1821 10.9981 10.6045 10.9526 11.025C10.9071 11.4455 10.7077 11.8343 10.3929 12.1167C10.078 12.3991 9.66992 12.5551 9.24698 12.5548H8.10355C7.74912 12.555 7.40337 12.4453 7.11387 12.2408C6.82436 12.0363 6.60535 11.7472 6.48698 11.4131M8.67783 5.69768V3.9834M8.67783 14.2691V12.5548M11.947 23.6411V14.6411C11.947 14.0728 12.1727 13.5277 12.5746 13.1259C12.9765 12.724 13.5215 12.4983 14.0898 12.4983C14.6582 12.4983 15.2032 12.724 15.6051 13.1259C16.0069 13.5277 16.2327 14.0728 16.2327 14.6411V19.3554H19.6613C20.5706 19.3554 21.4426 19.7166 22.0856 20.3596C22.7286 21.0026 23.0898 21.8747 23.0898 22.784V23.6411" stroke="#1E1E1E" stroke-width="1.71429" stroke-linecap="round" stroke-linejoin="round"/>
<path d="M8.67945 16.8955C7.09782 16.8952 5.55393 16.4122 4.25423 15.5109C2.95452 14.6096 1.96093 13.333 1.40631 11.8518C0.851685 10.3706 0.762458 8.75536 1.15056 7.22207C1.53866 5.68879 2.38559 4.31052 3.57811 3.27155C4.77063 2.23257 6.25191 1.58241 7.82391 1.40798C9.3959 1.23355 10.9837 1.54318 12.375 2.29546C13.7662 3.04774 14.8947 4.20681 15.6095 5.61772C16.3243 7.02863 16.5913 8.62413 16.3749 10.1909" stroke="#1E1E1E" stroke-width="1.71429" stroke-linecap="round"/>
</g>
<defs>
<clipPath id="clip0_154_10">
<rect width="24" height="24" fill="white" transform="translate(0 0.5)"/>
</clipPath>
</defs>
</svg>
