<svg width="31" height="31" viewBox="0 0 31 31" fill="none" xmlns="http://www.w3.org/2000/svg">
<path d="M15.5 16.125C14.3397 16.125 13.2269 16.5859 12.4064 17.4064C11.5859 18.2269 11.125 19.3397 11.125 20.5C11.125 21.6603 11.5859 22.7731 12.4064 23.5936C13.2269 24.4141 14.3397 24.875 15.5 24.875C16.6603 24.875 17.7731 24.4141 18.5936 23.5936C19.4141 22.7731 19.875 21.6603 19.875 20.5C19.875 19.3397 19.4141 18.2269 18.5936 17.4064C17.7731 16.5859 16.6603 16.125 15.5 16.125ZM13.625 20.5C13.625 20.0027 13.8225 19.5258 14.1742 19.1742C14.5258 18.8225 15.0027 18.625 15.5 18.625C15.9973 18.625 16.4742 18.8225 16.8258 19.1742C17.1775 19.5258 17.375 20.0027 17.375 20.5C17.375 20.9973 17.1775 21.4742 16.8258 21.8258C16.4742 22.1775 15.9973 22.375 15.5 22.375C15.0027 22.375 14.5258 22.1775 14.1742 21.8258C13.8225 21.4742 13.625 20.9973 13.625 20.5Z" fill="black"/>
<path d="M22.4075 6.89498L18.4338 1.32373L3.8225 12.9962L3.0125 12.9875V13H2.375V28H28.625V13H27.4225L25.03 6.00123L22.4075 6.89498ZM24.7812 13H12.2463L21.5825 9.81748L23.485 9.20873L24.7812 13ZM19.9375 7.73748L10.3 11.0225L17.9325 4.92498L19.9375 7.73748ZM4.875 23.2112V17.7862C5.40272 17.6 5.88206 17.298 6.27788 16.9024C6.6737 16.5068 6.97596 16.0276 7.1625 15.5H23.8375C24.0239 16.0278 24.3261 16.5073 24.7219 16.9031C25.1177 17.2989 25.5972 17.6011 26.125 17.7875V23.2125C25.5972 23.3989 25.1177 23.701 24.7219 24.0969C24.3261 24.4927 24.0239 24.9721 23.8375 25.5H7.165C6.97773 24.9721 6.67496 24.4927 6.27877 24.0967C5.88259 23.7007 5.403 23.3982 4.875 23.2112Z" fill="black"/>
</svg>
