<svg width="31" height="31" viewBox="0 0 31 31" fill="none" xmlns="http://www.w3.org/2000/svg">
<path d="M22.0656 16.1122C21.7106 19.0685 19.7743 20.2497 18.9381 21.1072C18.1006 21.9672 18.2506 22.1385 18.3068 23.3997C18.3162 23.5558 18.2935 23.7121 18.2402 23.859C18.1869 24.006 18.104 24.1405 17.9968 24.2542C17.8895 24.3679 17.7601 24.4584 17.6165 24.5202C17.4729 24.582 17.3181 24.6137 17.1618 24.6135H13.8393C13.6831 24.6132 13.5286 24.5811 13.3852 24.5191C13.2417 24.4572 13.1125 24.3666 13.0052 24.2531C12.8979 24.1395 12.8149 24.0052 12.7613 23.8585C12.7076 23.7118 12.6844 23.5557 12.6931 23.3997C12.6931 22.1622 12.8081 21.8747 12.0631 21.1072C11.1131 20.1572 8.87806 18.816 8.87806 15.1272C8.87235 14.211 9.05652 13.3035 9.41895 12.4619C9.78138 11.6204 10.3142 10.863 10.9839 10.2376C11.6535 9.61225 12.4455 9.13237 13.3098 8.82824C14.1741 8.52411 15.0921 8.40233 16.0058 8.47058C16.9195 8.53882 17.8092 8.79562 18.6187 9.22477C19.4283 9.65393 20.1402 10.2461 20.7095 10.9641C21.2788 11.682 21.6932 12.5101 21.9266 13.3961C22.16 14.2822 22.2073 15.207 22.0656 16.1122Z" stroke="black" stroke-width="1.875" stroke-linecap="round" stroke-linejoin="round"/>
<path d="M13.5752 24.5449V26.4349C13.5752 26.9512 13.8627 27.3749 14.2164 27.3749H16.7827C17.1389 27.3749 17.4252 26.9499 17.4252 26.4349V24.5449M14.5252 11.3699C13.7871 11.3703 13.0794 11.6637 12.5576 12.1857C12.0358 12.7077 11.7427 13.4156 11.7427 14.1537M24.6652 15.3799H26.9577M22.3577 7.86494L23.9839 6.23869M23.6077 21.7499L25.2339 23.3749M15.5002 3.47119V5.32494M7.05019 6.23744L8.6652 7.86494M5.80019 23.3749L7.4152 21.7499M6.3352 15.3799H4.04395" stroke="black" stroke-width="1.875" stroke-linecap="round" stroke-linejoin="round"/>
</svg>
