<svg width="31" height="31" viewBox="0 0 31 31" fill="none" xmlns="http://www.w3.org/2000/svg">
<path d="M4.25 8V23H17.15C16.8848 22.1932 16.7498 21.3493 16.75 20.5H9.25C9.25 19.837 8.98661 19.2011 8.51777 18.7322C8.04893 18.2634 7.41304 18 6.75 18V13C8.1375 13 9.25 11.8875 9.25 10.5H21.75C21.75 11.163 22.0134 11.7989 22.4822 12.2678C22.9511 12.7366 23.587 13 24.25 13V13.075C25.0875 13.075 25.925 13.225 26.75 13.5V8H4.25ZM15.5 11.75C13.375 11.7875 11.75 13.375 11.75 15.5C11.75 17.625 13.375 19.175 15.5 19.25C15.975 19.25 16.4625 19.15 16.925 18.9625C17.2625 17.5875 17.825 16.2875 19.2125 15.0125C19.0625 13.35 17.4875 11.7125 15.5 11.75ZM27.5375 15.8375L22.7 20.7125L21.0125 19L19.25 20.775L22.6875 24.25L29.2875 17.6L27.5375 15.8375Z" fill="black"/>
</svg>
