<svg width="31" height="31" viewBox="0 0 31 31" fill="none" xmlns="http://www.w3.org/2000/svg">
<path d="M26.75 21.125C26.75 21.6 26.4875 22.0125 26.0875 22.225L16.2125 27.775C16.0125 27.925 15.7625 28 15.5 28C15.2375 28 14.9875 27.925 14.7875 27.775L4.91251 22.225C4.71202 22.1198 4.54423 21.9616 4.42742 21.7677C4.3106 21.5737 4.24924 21.3514 4.25001 21.125V9.875C4.25001 9.4 4.51251 8.9875 4.91251 8.775L14.7875 3.225C14.9875 3.075 15.2375 3 15.5 3C15.7625 3 16.0125 3.075 16.2125 3.225L26.0875 8.775C26.4875 8.9875 26.75 9.4 26.75 9.875V21.125ZM6.75001 11.75V19.25H8.31251V16.75H9.25001C9.91305 16.75 10.5489 16.4866 11.0178 16.0178C11.4866 15.5489 11.75 14.913 11.75 14.25C11.75 13.587 11.4866 12.9511 11.0178 12.4822C10.5489 12.0134 9.91305 11.75 9.25001 11.75H6.75001ZM8.31251 15.5V13H8.93751C9.26903 13 9.58697 13.1317 9.82139 13.3661C10.0558 13.6005 10.1875 13.9185 10.1875 14.25C10.1875 14.5815 10.0558 14.8995 9.82139 15.1339C9.58697 15.3683 9.26903 15.5 8.93751 15.5H8.31251ZM12.6875 11.75V19.25H14.25V16.75H15.1875L16.0125 19.25H17.6625L16.675 16.2625C17.2875 15.8125 17.6875 15.075 17.6875 14.25C17.6875 13.587 17.4241 12.9511 16.9553 12.4822C16.4864 12.0134 15.8505 11.75 15.1875 11.75H12.6875ZM14.25 15.5V13H14.875C15.2065 13 15.5245 13.1317 15.7589 13.3661C15.9933 13.6005 16.125 13.9185 16.125 14.25C16.125 14.5815 15.9933 14.8995 15.7589 15.1339C15.5245 15.3683 15.2065 15.5 14.875 15.5H14.25ZM21.75 11.75C20.025 11.75 18.625 13.425 18.625 15.5C18.625 17.575 20.025 19.25 21.75 19.25C23.475 19.25 24.875 17.575 24.875 15.5C24.875 13.425 23.475 11.75 21.75 11.75ZM21.75 13.3125C22.7 13.3125 23.475 14.2875 23.475 15.5C23.475 16.7125 22.7 17.6875 21.75 17.6875C20.8 17.6875 20.0375 16.7125 20.0375 15.5C20.0375 14.2875 20.8 13.3125 21.75 13.3125Z" fill="black"/>
</svg>
