<svg width="31" height="31" viewBox="0 0 31 31" fill="none" xmlns="http://www.w3.org/2000/svg">
<path d="M15.5 3C17.1415 3 18.767 3.32332 20.2835 3.95151C21.8001 4.57969 23.1781 5.50043 24.3388 6.66117C25.4996 7.8219 26.4203 9.19989 27.0485 10.7165C27.6767 12.233 28 13.8585 28 15.5C28 18.8152 26.683 21.9946 24.3388 24.3388C21.9946 26.683 18.8152 28 15.5 28C13.8585 28 12.233 27.6767 10.7165 27.0485C9.19989 26.4203 7.8219 25.4996 6.66117 24.3388C4.31696 21.9946 3 18.8152 3 15.5C3 12.1848 4.31696 9.00537 6.66117 6.66117C9.00537 4.31696 12.1848 3 15.5 3ZM15.5 5.5C12.8478 5.5 10.3043 6.55357 8.42893 8.42893C6.55357 10.3043 5.5 12.8478 5.5 15.5C5.5 18.5 6.75 21.125 8.875 23C10.625 21.375 13 20.5 15.5 20.5C18 20.5 20.25 21.375 22.125 23C24.25 21.125 25.5 18.5 25.5 15.5C25.5 12.8478 24.4464 10.3043 22.5711 8.42893C20.6957 6.55357 18.1522 5.5 15.5 5.5ZM13 7.8625C13.475 7.875 13.925 8.1875 14.125 8.675L15.7375 12.7125L15.8625 13C16.75 13.1625 17.4875 13.75 17.825 14.575C18.3375 15.8625 17.7125 17.3125 16.425 17.825C15.1375 18.3375 13.6875 17.7125 13.175 16.425C12.85 15.6 13 14.65 13.5375 13.95L13.4125 13.625L11.8 9.6125L11.7875 9.575C11.5375 8.9375 11.85 8.2125 12.4875 7.95C12.65 7.8875 12.8125 7.8625 13 7.8625ZM18 8C18.3315 8 18.6495 8.1317 18.8839 8.36612C19.1183 8.60054 19.25 8.91848 19.25 9.25C19.25 9.58152 19.1183 9.89946 18.8839 10.1339C18.6495 10.3683 18.3315 10.5 18 10.5C17.6685 10.5 17.3505 10.3683 17.1161 10.1339C16.8817 9.89946 16.75 9.58152 16.75 9.25C16.75 8.91848 16.8817 8.60054 17.1161 8.36612C17.3505 8.1317 17.6685 8 18 8ZM21.75 11.75C22.0815 11.75 22.3995 11.8817 22.6339 12.1161C22.8683 12.3505 23 12.6685 23 13C23 13.3315 22.8683 13.6495 22.6339 13.8839C22.3995 14.1183 22.0815 14.25 21.75 14.25C21.4185 14.25 21.1005 14.1183 20.8661 13.8839C20.6317 13.6495 20.5 13.3315 20.5 13C20.5 12.6685 20.6317 12.3505 20.8661 12.1161C21.1005 11.8817 21.4185 11.75 21.75 11.75ZM9.25 11.75C9.58152 11.75 9.89946 11.8817 10.1339 12.1161C10.3683 12.3505 10.5 12.6685 10.5 13C10.5 13.3315 10.3683 13.6495 10.1339 13.8839C9.89946 14.1183 9.58152 14.25 9.25 14.25C8.91848 14.25 8.60054 14.1183 8.36612 13.8839C8.1317 13.6495 8 13.3315 8 13C8 12.6685 8.1317 12.3505 8.36612 12.1161C8.60054 11.8817 8.91848 11.75 9.25 11.75Z" fill="black"/>
</svg>
