<svg width="31" height="31" viewBox="0 0 31 31" fill="none" xmlns="http://www.w3.org/2000/svg">
<path d="M15.5 16.75C18.2614 16.75 20.5 14.5114 20.5 11.75C20.5 8.98858 18.2614 6.75 15.5 6.75C12.7386 6.75 10.5 8.98858 10.5 11.75C10.5 14.5114 12.7386 16.75 15.5 16.75Z" fill="black"/>
<path d="M21.75 15.5C23.8211 15.5 25.5 13.8211 25.5 11.75C25.5 9.67893 23.8211 8 21.75 8C19.6789 8 18 9.67893 18 11.75C18 13.8211 19.6789 15.5 21.75 15.5Z" fill="black"/>
<path d="M9.25 15.5C11.3211 15.5 13 13.8211 13 11.75C13 9.67893 11.3211 8 9.25 8C7.17893 8 5.5 9.67893 5.5 11.75C5.5 13.8211 7.17893 15.5 9.25 15.5Z" fill="black"/>
<path fill-rule="evenodd" clip-rule="evenodd" d="M22.4614 22.9999H25.3689C26.1089 22.9999 26.6752 22.3624 26.4964 21.6449C26.0352 19.8074 24.8102 16.7499 21.7502 16.7499C20.6427 16.7499 19.7752 17.1499 19.0977 17.7499C20.9827 18.9711 21.9577 21.1124 22.4614 22.9999ZM11.9027 17.7499C11.1765 17.0935 10.2289 16.7362 9.25018 16.7499C6.19018 16.7499 4.96518 19.8074 4.50393 21.6449C4.32518 22.3624 4.89143 22.9999 5.63143 22.9999H8.54018C9.04393 21.1124 10.0177 18.9711 11.9027 17.7499Z" fill="black"/>
<path d="M15.4997 18C20.1359 18 21.3322 22.1263 21.6422 24.2575C21.7422 24.9413 21.1897 25.5 20.4997 25.5H10.4997C9.80969 25.5 9.25844 24.9413 9.35719 24.2575C9.66719 22.1263 10.8634 18 15.4997 18Z" fill="black"/>
</svg>
