<svg width="24" height="24" viewBox="0 0 24 24" fill="none" xmlns="http://www.w3.org/2000/svg">
<path d="M15.7718 9.0499C15.8288 9.08273 15.8787 9.12648 15.9188 9.17865C15.9588 9.23082 15.9882 9.29038 16.0052 9.35392C16.0222 9.41746 16.0265 9.48373 16.0179 9.54893C16.0092 9.61414 15.9878 9.67699 15.9548 9.7339L12.5378 15.6469C12.471 15.7608 12.3619 15.8437 12.2342 15.8774C12.1066 15.9112 11.9708 15.8931 11.8564 15.827C11.7421 15.761 11.6585 15.6525 11.6239 15.525C11.5893 15.3976 11.6065 15.2617 11.6718 15.1469L15.0888 9.2329C15.1551 9.11806 15.2643 9.03427 15.3924 8.99995C15.5205 8.96563 15.6569 8.9836 15.7718 9.0499Z" fill="#1E1E1E"/>
<path d="M15.14 3.98311C14.9335 4.14974 14.7561 4.34945 14.615 4.57411C14.462 4.80211 14.295 5.09211 14.087 5.45011L8.965 14.3141C8.64051 14.8496 8.48022 15.4685 8.504 16.0941L8.539 18.2111C8.546 18.5951 8.551 18.9181 8.579 19.1721C8.59033 19.2821 8.60933 19.3914 8.636 19.5001H4C3.86739 19.5001 3.74021 19.5528 3.64645 19.6466C3.55268 19.7403 3.5 19.8675 3.5 20.0001C3.5 20.1327 3.55268 20.2599 3.64645 20.3537C3.74021 20.4474 3.86739 20.5001 4 20.5001H10C10.0415 20.5002 10.0828 20.4952 10.123 20.4851C10.2859 20.4549 10.4445 20.4045 10.595 20.3351C10.829 20.2321 11.111 20.0751 11.447 19.8891L13.301 18.8611C13.8545 18.5692 14.3103 18.1214 14.612 17.5731L19.735 8.70911C19.942 8.35111 20.11 8.06011 20.231 7.81411C20.3549 7.57959 20.439 7.32616 20.48 7.06411C20.5201 6.75941 20.4997 6.4498 20.4201 6.15296C20.3405 5.85613 20.2032 5.57788 20.016 5.33411C19.8494 5.12765 19.6497 4.95024 19.425 4.80911C19.197 4.65611 18.906 4.48911 18.548 4.28211L18.518 4.26411C18.158 4.05711 17.868 3.89011 17.622 3.76911C17.3872 3.64514 17.1334 3.56099 16.871 3.52011C16.2558 3.43894 15.6325 3.60548 15.14 3.98311ZM16.741 4.51111C16.847 4.52511 16.975 4.56511 17.183 4.66711C17.395 4.77111 17.657 4.92211 18.033 5.13911C18.411 5.35711 18.673 5.50811 18.868 5.63911C19.061 5.76911 19.159 5.85911 19.224 5.94311C19.44 6.22511 19.536 6.58111 19.489 6.93311C19.476 7.03811 19.436 7.16611 19.334 7.37311C19.185 7.66118 19.0272 7.94464 18.861 8.22311L18.731 8.45011C18.671 8.37716 18.6076 8.30708 18.541 8.24011C18.245 7.94011 17.75 7.53711 16.923 7.06011C16.11 6.59011 15.547 6.33011 15.177 6.18611C15.0791 6.14767 14.9801 6.11232 14.88 6.08011L14.945 5.96611C15.163 5.58911 15.315 5.32811 15.446 5.13211C15.576 4.94011 15.666 4.84211 15.75 4.77711C16.032 4.56111 16.389 4.46511 16.742 4.51111M18.189 9.39011L13.749 17.0731C13.5382 17.4649 13.2136 17.7836 12.818 17.9871L11.172 18.8991C10.993 18.6275 10.7504 18.4037 10.4653 18.247C10.1802 18.0904 9.86124 18.0056 9.536 18.0001L9.503 16.0771C9.48229 15.633 9.59665 15.193 9.831 14.8151L14.361 6.97711C14.3857 6.98378 14.4107 6.98945 14.436 6.99411H14.439L14.494 7.00811C14.552 7.02411 14.656 7.05611 14.812 7.11811C15.125 7.23911 15.642 7.47611 16.422 7.92611C17.19 8.36811 17.608 8.71911 17.828 8.94211C17.9087 9.02265 17.981 9.1111 18.044 9.20611C18.0762 9.27775 18.1249 9.34079 18.186 9.39011" fill="#1E1E1E"/>
</svg>
