<svg width="25" height="24" viewBox="0 0 25 24" fill="none" xmlns="http://www.w3.org/2000/svg">
<path d="M2.5 12C2.5 17.523 6.977 22 12.5 22C18.023 22 22.5 17.523 22.5 12C22.5 6.477 18.023 2 12.5 2C6.977 2 2.5 6.477 2.5 12ZM20.5 12C20.5 14.1217 19.6571 16.1566 18.1569 17.6569C16.6566 19.1571 14.6217 20 12.5 20C10.3783 20 8.34344 19.1571 6.84315 17.6569C5.34285 16.1566 4.5 14.1217 4.5 12C4.5 9.87827 5.34285 7.84344 6.84315 6.34315C8.34344 4.84285 10.3783 4 12.5 4C14.6217 4 16.6566 4.84285 18.1569 6.34315C19.6571 7.84344 20.5 9.87827 20.5 12ZM12.5 12V6C13.2881 5.99881 14.0687 6.15343 14.7969 6.45496C15.5251 6.75649 16.1864 7.19898 16.743 7.757L12.5 12Z" fill="#1E1E1E"/>
</svg>
