<svg width="31" height="30" viewBox="0 0 31 30" fill="none" xmlns="http://www.w3.org/2000/svg">
<path d="M2.375 3.75H4.5625L5.5 7.5M5.5 7.5L8.625 20H24.875L28 7.5H5.5Z" stroke="black" stroke-width="2.5" stroke-linecap="round" stroke-linejoin="round"/>
<path d="M8.625 26.25C9.66053 26.25 10.5 25.4105 10.5 24.375C10.5 23.3395 9.66053 22.5 8.625 22.5C7.58947 22.5 6.75 23.3395 6.75 24.375C6.75 25.4105 7.58947 26.25 8.625 26.25Z" stroke="black" stroke-width="2.5" stroke-linecap="round" stroke-linejoin="round"/>
<path d="M24.875 26.25C25.9105 26.25 26.75 25.4105 26.75 24.375C26.75 23.3395 25.9105 22.5 24.875 22.5C23.8395 22.5 23 23.3395 23 24.375C23 25.4105 23.8395 26.25 24.875 26.25Z" stroke="black" stroke-width="2.5" stroke-linecap="round" stroke-linejoin="round"/>
</svg>
