<svg width="31" height="30" viewBox="0 0 31 30" fill="none" xmlns="http://www.w3.org/2000/svg">
<path d="M12.6875 9.375C12.9361 9.375 13.1746 9.27623 13.3504 9.10041C13.5262 8.9246 13.625 8.68614 13.625 8.4375C13.625 8.18886 13.5262 7.9504 13.3504 7.77459C13.1746 7.59877 12.9361 7.5 12.6875 7.5C12.4389 7.5 12.2004 7.59877 12.0246 7.77459C11.8488 7.9504 11.75 8.18886 11.75 8.4375C11.75 8.68614 11.8488 8.9246 12.0246 9.10041C12.2004 9.27623 12.4389 9.375 12.6875 9.375ZM13.625 13.125C13.625 13.3736 13.5262 13.6121 13.3504 13.7879C13.1746 13.9637 12.9361 14.0625 12.6875 14.0625C12.4389 14.0625 12.2004 13.9637 12.0246 13.7879C11.8488 13.6121 11.75 13.3736 11.75 13.125C11.75 12.8764 11.8488 12.6379 12.0246 12.4621C12.2004 12.2863 12.4389 12.1875 12.6875 12.1875C12.9361 12.1875 13.1746 12.2863 13.3504 12.4621C13.5262 12.6379 13.625 12.8764 13.625 13.125ZM12.6875 18.75C12.9361 18.75 13.1746 18.6512 13.3504 18.4754C13.5262 18.2996 13.625 18.0611 13.625 17.8125C13.625 17.5639 13.5262 17.3254 13.3504 17.1496C13.1746 16.9738 12.9361 16.875 12.6875 16.875C12.4389 16.875 12.2004 16.9738 12.0246 17.1496C11.8488 17.3254 11.75 17.5639 11.75 17.8125C11.75 18.0611 11.8488 18.2996 12.0246 18.4754C12.2004 18.6512 12.4389 18.75 12.6875 18.75ZM17.375 8.4375C17.375 8.68614 17.2762 8.9246 17.1004 9.10041C16.9246 9.27623 16.6861 9.375 16.4375 9.375C16.1889 9.375 15.9504 9.27623 15.7746 9.10041C15.5988 8.9246 15.5 8.68614 15.5 8.4375C15.5 8.18886 15.5988 7.9504 15.7746 7.77459C15.9504 7.59877 16.1889 7.5 16.4375 7.5C16.6861 7.5 16.9246 7.59877 17.1004 7.77459C17.2762 7.9504 17.375 8.18886 17.375 8.4375ZM16.4375 14.0625C16.6861 14.0625 16.9246 13.9637 17.1004 13.7879C17.2762 13.6121 17.375 13.3736 17.375 13.125C17.375 12.8764 17.2762 12.6379 17.1004 12.4621C16.9246 12.2863 16.6861 12.1875 16.4375 12.1875C16.1889 12.1875 15.9504 12.2863 15.7746 12.4621C15.5988 12.6379 15.5 12.8764 15.5 13.125C15.5 13.3736 15.5988 13.6121 15.7746 13.7879C15.9504 13.9637 16.1889 14.0625 16.4375 14.0625ZM17.375 17.8125C17.375 18.0611 17.2762 18.2996 17.1004 18.4754C16.9246 18.6512 16.6861 18.75 16.4375 18.75C16.1889 18.75 15.9504 18.6512 15.7746 18.4754C15.5988 18.2996 15.5 18.0611 15.5 17.8125C15.5 17.5639 15.5988 17.3254 15.7746 17.1496C15.9504 16.9738 16.1889 16.875 16.4375 16.875C16.6861 16.875 16.9246 16.9738 17.1004 17.1496C17.2762 17.3254 17.375 17.5639 17.375 17.8125ZM20.1875 18.75C20.4361 18.75 20.6746 18.6512 20.8504 18.4754C21.0262 18.2996 21.125 18.0611 21.125 17.8125C21.125 17.5639 21.0262 17.3254 20.8504 17.1496C20.6746 16.9738 20.4361 16.875 20.1875 16.875C19.9389 16.875 19.7004 16.9738 19.5246 17.1496C19.3488 17.3254 19.25 17.5639 19.25 17.8125C19.25 18.0611 19.3488 18.2996 19.5246 18.4754C19.7004 18.6512 19.9389 18.75 20.1875 18.75ZM10.8125 3.75C10.0666 3.75 9.35121 4.04632 8.82376 4.57376C8.29632 5.10121 8 5.81658 8 6.5625V25.3125C8 25.5611 8.09877 25.7996 8.27459 25.9754C8.4504 26.1512 8.68886 26.25 8.9375 26.25H23.9375C24.1861 26.25 24.4246 26.1512 24.6004 25.9754C24.7762 25.7996 24.875 25.5611 24.875 25.3125V15.9375C24.875 15.1916 24.5787 14.4762 24.0512 13.9488C23.5238 13.4213 22.8084 13.125 22.0625 13.125H21.125V6.5625C21.125 5.81658 20.8287 5.10121 20.3012 4.57376C19.7738 4.04632 19.0584 3.75 18.3125 3.75H10.8125ZM9.875 6.5625C9.875 6.31386 9.97377 6.0754 10.1496 5.89959C10.3254 5.72377 10.5639 5.625 10.8125 5.625H18.3125C18.5611 5.625 18.7996 5.72377 18.9754 5.89959C19.1512 6.0754 19.25 6.31386 19.25 6.5625V14.0625C19.25 14.3111 19.3488 14.5496 19.5246 14.7254C19.7004 14.9012 19.9389 15 20.1875 15H22.0625C22.3111 15 22.5496 15.0988 22.7254 15.2746C22.9012 15.4504 23 15.6889 23 15.9375V24.375H21.125V21.5625C21.125 21.3139 21.0262 21.0754 20.8504 20.8996C20.6746 20.7238 20.4361 20.625 20.1875 20.625H12.6875C12.4389 20.625 12.2004 20.7238 12.0246 20.8996C11.8488 21.0754 11.75 21.3139 11.75 21.5625V24.375H9.875V6.5625ZM19.25 22.5V24.375H17.3806V22.5H19.25ZM15.5056 22.5V24.375H13.625V22.5H15.5056Z" fill="black"/>
</svg>
