<svg width="31" height="30" viewBox="0 0 31 30" fill="none" xmlns="http://www.w3.org/2000/svg">
<g clip-path="url(#clip0_155_326)">
<path d="M7.263 28.2026H23.7496C25.5325 28.2026 26.5744 27.1976 26.5744 25.4276V13.9639L28.1939 15.4457C28.458 15.6969 28.7467 15.8726 29.0982 15.8726C29.688 15.8726 30.1653 15.5083 30.1653 14.9057C30.1653 14.5291 30.0271 14.2907 29.7887 14.0769L25.4317 10.0966V2.70209C25.4317 2.14977 25.0803 1.79834 24.528 1.79834H22.8834C22.3434 1.79834 21.9662 2.14977 21.9662 2.70209V6.94602L17.0071 2.42566C16.5678 2.02388 16.0401 1.79834 15.5001 1.79834C14.9601 1.79834 14.433 2.02388 13.9937 2.42566L1.21157 14.0774C0.985497 14.2912 0.834961 14.5296 0.834961 14.9062C0.834961 15.5089 1.31175 15.8732 1.9021 15.8732C2.26639 15.8732 2.55514 15.6974 2.80639 15.4462L4.42585 13.9773V25.4282C4.42585 27.1982 5.46835 28.2032 7.26353 28.2032M19.1157 17.8441C19.1157 17.2666 18.7391 16.9023 18.1616 16.9023H12.8371C12.2596 16.9023 11.8707 17.2666 11.8707 17.8441V26.1803H7.68942C6.88585 26.1803 6.44657 25.741 6.44657 24.9246V12.1312L15.0603 4.28352C15.1857 4.15816 15.3362 4.08263 15.4996 4.08263C15.663 4.08263 15.8135 4.1453 15.9517 4.28352L24.5521 12.1312V24.9251C24.5521 25.7416 24.1128 26.1808 23.3221 26.1808H19.1157V17.8441Z" fill="black"/>
</g>
<defs>
<clipPath id="clip0_155_326">
<rect width="30" height="30" fill="white" transform="translate(0.5)"/>
</clipPath>
</defs>
</svg>
