<svg width="31" height="30" viewBox="0 0 31 30" fill="none" xmlns="http://www.w3.org/2000/svg">
<path d="M15.5 11.25C17.4875 20.7625 13 27.5 13 27.5H16.75C19.1 20.25 18 15.1125 17.375 12.5M20.075 8.95C20.2875 9.2125 20.5 9.4875 20.6625 9.775C21.681 11.3851 22.1544 13.2802 22.0125 15.1802C21.8707 17.0801 21.1213 18.8839 19.875 20.325C20.415 19.0158 20.6344 17.5965 20.5148 16.1854C20.3952 14.7743 19.9402 13.4121 19.1875 12.2125C19.0875 12.05 18.975 11.9125 18.875 11.7625C18.1569 10.7587 17.2373 9.91579 16.175 9.2875C14.3754 9.86248 12.8051 10.9945 11.6907 12.52C10.5763 14.0456 9.97547 15.8858 9.975 17.775C9.975 18.7 10.1125 19.5875 10.3625 20.4125C9.27844 18.905 8.69675 17.0943 8.7 15.2375C8.7 12.3 10.125 9.7 12.3125 8.075C10.5 7.9375 8.575 8.3375 6.9 9.375C6.125 9.8875 5.45 10.475 4.875 11.1375C5.5625 9.475 6.75 7.9875 8.375 6.9625C10.25 5.7875 12.375 5.4 14.425 5.7C13.9125 5 13.2875 4.3375 12.5375 3.75C11.8125 3.225 11.025 2.8 10.2 2.5C12 2.55 13.8 3.125 15.3375 4.2875C16.125 4.875 16.75 5.5875 17.25 6.3375C17.375 6.3375 17.4875 6.325 17.6125 6.325C21.6125 6.325 25 8.9625 26.125 12.6C25.4219 11.6082 24.5216 10.7721 23.4806 10.1441C22.4397 9.51602 21.2803 9.10952 20.075 8.95Z" fill="black"/>
</svg>
