<svg width="31" height="30" viewBox="0 0 31 30" fill="none" xmlns="http://www.w3.org/2000/svg">
<path d="M15.5 18.75C9.975 18.75 5.5 20.9875 5.5 23.75V26.25H25.5V23.75C25.5 20.9875 21.025 18.75 15.5 18.75ZM10.5 11.25C10.5 12.5761 11.0268 13.8479 11.9645 14.7855C12.9021 15.7232 14.1739 16.25 15.5 16.25C16.8261 16.25 18.0979 15.7232 19.0355 14.7855C19.9732 13.8479 20.5 12.5761 20.5 11.25M14.875 2.5C14.5 2.5 14.25 2.7625 14.25 3.125V6.875H13V3.75C13 3.75 10.1875 4.825 10.1875 8.4375C10.1875 8.4375 9.25 8.6125 9.25 10H21.75C21.6875 8.6125 20.8125 8.4375 20.8125 8.4375C20.8125 4.825 18 3.75 18 3.75V6.875H16.75V3.125C16.75 2.7625 16.5125 2.5 16.125 2.5H14.875Z" fill="black"/>
</svg>
