<svg width="31" height="30" viewBox="0 0 31 30" fill="none" xmlns="http://www.w3.org/2000/svg">
<path d="M15.5004 2.8125C15.5004 2.56386 15.5992 2.3254 15.775 2.14959C15.9508 1.97377 16.1893 1.875 16.4379 1.875C18.0384 1.875 19.6232 2.19024 21.1019 2.80272C22.5805 3.4152 23.9241 4.31292 25.0558 5.44464C26.1875 6.57635 27.0852 7.91989 27.6977 9.39855C28.3102 10.8772 28.6254 12.462 28.6254 14.0625C28.6254 14.3111 28.5266 14.5496 28.3508 14.7254C28.175 14.9012 27.9365 15 27.6879 15H16.4379C16.1893 15 15.9508 14.9012 15.775 14.7254C15.5992 14.5496 15.5004 14.3111 15.5004 14.0625V2.8125ZM13.6254 6.60375C13.6254 6.47352 13.5983 6.34471 13.5458 6.22555C13.4932 6.10638 13.4164 5.99946 13.3203 5.91161C13.2242 5.82376 13.1108 5.75691 12.9874 5.71531C12.864 5.67371 12.7332 5.65828 12.6035 5.67C10.4744 5.86412 8.4446 6.66094 6.75199 7.96712C5.05938 9.27329 3.77401 11.0347 3.04644 13.0451C2.31888 15.0555 2.17925 17.2316 2.6439 19.3185C3.10856 21.4054 4.15826 23.3167 5.67005 24.8285C7.18184 26.3403 9.09312 27.39 11.18 27.8546C13.2669 28.3193 15.443 28.1797 17.4534 27.4521C19.4638 26.7245 21.2252 25.4392 22.5314 23.7465C23.8376 22.0539 24.6344 20.0242 24.8285 17.895C24.84 17.7656 24.8244 17.6352 24.7828 17.5122C24.7412 17.3891 24.6744 17.2761 24.5868 17.1802C24.4992 17.0843 24.3926 17.0076 24.2738 16.9551C24.155 16.9025 24.0266 16.8753 23.8967 16.875H13.6254V6.60375Z" fill="black"/>
</svg>
