<svg width="24" height="25" viewBox="0 0 24 25" fill="none" xmlns="http://www.w3.org/2000/svg">
<path d="M22.3125 11.8594H19.4484C19.043 8.42813 16.3219 5.70703 12.8906 5.30156V2.4375C12.8906 2.33437 12.8062 2.25 12.7031 2.25H11.2969C11.1938 2.25 11.1094 2.33437 11.1094 2.4375V5.30156C7.67813 5.70703 4.95703 8.42813 4.55156 11.8594H1.6875C1.58437 11.8594 1.5 11.9438 1.5 12.0469V13.4531C1.5 13.5562 1.58437 13.6406 1.6875 13.6406H4.55156C4.95703 17.0719 7.67813 19.793 11.1094 20.1984V23.0625C11.1094 23.1656 11.1938 23.25 11.2969 23.25H12.7031C12.8062 23.25 12.8906 23.1656 12.8906 23.0625V20.1984C16.3219 19.793 19.043 17.0719 19.4484 13.6406H22.3125C22.4156 13.6406 22.5 13.5562 22.5 13.4531V12.0469C22.5 11.9438 22.4156 11.8594 22.3125 11.8594ZM12 18.4688C8.84062 18.4688 6.28125 15.9094 6.28125 12.75C6.28125 9.59062 8.84062 7.03125 12 7.03125C15.1594 7.03125 17.7188 9.59062 17.7188 12.75C17.7188 15.9094 15.1594 18.4688 12 18.4688Z" fill="#1E1E1E"/>
<path d="M12 9.9375C11.2477 9.9375 10.5445 10.2281 10.0125 10.7625C9.48047 11.2945 9.1875 11.9977 9.1875 12.75C9.1875 13.5023 9.48047 14.2055 10.0125 14.7375C10.5445 15.2672 11.25 15.5625 12 15.5625C12.75 15.5625 13.4555 15.2695 13.9875 14.7375C14.5172 14.2055 14.8125 13.5 14.8125 12.75C14.8125 12 14.5195 11.2945 13.9875 10.7625C13.4555 10.2281 12.7523 9.9375 12 9.9375Z" fill="#1E1E1E"/>
</svg>
