<svg width="24" height="25" viewBox="0 0 24 25" fill="none" xmlns="http://www.w3.org/2000/svg">
<path d="M9.75081 21.3501C11.5308 20.6501 11.1408 18.7201 10.2408 17.5001C9.35081 16.2501 8.12081 15.3901 6.88081 14.5601C5.99589 14.0027 5.20589 13.3072 4.54081 12.5001C4.26081 12.1701 3.69081 11.5601 4.27081 11.4401C4.86081 11.3201 5.88081 11.9001 6.40081 12.1201C7.31081 12.5001 8.21081 12.9401 9.05081 13.4601L10.0608 11.7601C8.50081 10.7301 6.50081 9.82008 4.64081 9.55008C3.58081 9.39008 2.46081 9.61008 2.10081 10.7601C1.78081 11.7501 2.29081 12.7501 2.87081 13.5301C4.24081 15.3601 6.37081 16.2401 7.96081 17.8201C8.30081 18.1501 8.71081 18.5401 8.91081 19.0001C9.12081 19.4401 9.07081 19.4701 8.60081 19.4701C7.36081 19.4701 5.81081 18.5001 4.80081 17.8601L3.79081 19.5601C5.32081 20.5001 7.88081 21.9701 9.75081 21.3501ZM20.8408 5.75008C21.0608 5.53008 21.0608 5.17008 20.8408 4.96008L19.5408 3.66008C19.4363 3.55867 19.2964 3.50195 19.1508 3.50195C19.0052 3.50195 18.8653 3.55867 18.7608 3.66008L17.7408 4.68008L19.8208 6.76008M11.0008 11.4201V13.5001H13.0808L19.2308 7.35008L17.1508 5.27008L11.0008 11.4201Z" fill="#1E1E1E"/>
</svg>
