<svg width="31" height="31" viewBox="0 0 31 31" fill="none" xmlns="http://www.w3.org/2000/svg">
<g clip-path="url(#clip0_21_159)">
<path fill-rule="evenodd" clip-rule="evenodd" d="M27.6875 15.5C27.6875 18.7323 26.4035 21.8323 24.1179 24.1179C21.8323 26.4035 18.7323 27.6875 15.5 27.6875C12.2677 27.6875 9.16774 26.4035 6.88214 24.1179C4.59654 21.8323 3.3125 18.7323 3.3125 15.5C3.3125 12.2677 4.59654 9.16774 6.88214 6.88214C9.16774 4.59654 12.2677 3.3125 15.5 3.3125C18.7323 3.3125 21.8323 4.59654 24.1179 6.88214C26.4035 9.16774 27.6875 12.2677 27.6875 15.5ZM30.5 15.5C30.5 19.4782 28.9196 23.2936 26.1066 26.1066C23.2936 28.9196 19.4782 30.5 15.5 30.5C11.5218 30.5 7.70644 28.9196 4.8934 26.1066C2.08035 23.2936 0.5 19.4782 0.5 15.5C0.5 11.5218 2.08035 7.70644 4.8934 4.8934C7.70644 2.08035 11.5218 0.5 15.5 0.5C19.4782 0.5 23.2936 2.08035 26.1066 4.8934C28.9196 7.70644 30.5 11.5218 30.5 15.5ZM10.3475 9.3125C10.9934 8.9409 11.7603 8.84079 12.4799 9.03413C13.1995 9.22748 13.813 9.69849 14.1856 10.3438C14.308 10.559 14.3403 10.8138 14.2754 11.0527C14.2105 11.2917 14.0538 11.4952 13.8394 11.619C13.625 11.7428 13.3704 11.7768 13.131 11.7135C12.8917 11.6502 12.6871 11.4948 12.5619 11.2812C12.4796 11.1391 12.3615 11.021 12.2193 10.9389C12.077 10.8567 11.9157 10.8134 11.7515 10.8132C11.5872 10.813 11.4258 10.856 11.2834 10.9378C11.141 11.0196 11.0226 11.1374 10.94 11.2794C10.8152 11.4944 10.61 11.6511 10.3697 11.715C10.1294 11.7788 9.87351 11.7445 9.65844 11.6197C9.44336 11.4949 9.28668 11.2897 9.22286 11.0494C9.15904 10.809 9.19331 10.5532 9.31812 10.3381C9.566 9.91174 9.91977 9.55804 10.3475 9.3125ZM15.5 23C17.4891 23 19.3968 22.2098 20.8033 20.8033C22.2098 19.3968 23 17.4891 23 15.5H8C8 17.4891 8.79018 19.3968 10.1967 20.8033C11.6032 22.2098 13.5109 23 15.5 23ZM17.8475 9.3125C18.4934 8.9409 19.2603 8.84079 19.9799 9.03413C20.6995 9.22748 21.313 9.69849 21.6856 10.3438C21.7482 10.4504 21.789 10.5684 21.8057 10.6909C21.8225 10.8134 21.8148 10.938 21.7832 11.0575C21.7516 11.177 21.6967 11.2891 21.6216 11.3874C21.5465 11.4856 21.4527 11.568 21.3456 11.6298C21.2385 11.6916 21.1203 11.7316 20.9977 11.7476C20.8751 11.7635 20.7505 11.755 20.6312 11.7226C20.5119 11.6902 20.4002 11.6346 20.3025 11.5588C20.2047 11.4831 20.123 11.3887 20.0619 11.2812C19.9796 11.1391 19.8615 11.021 19.7193 10.9389C19.577 10.8567 19.4157 10.8134 19.2515 10.8132C19.0872 10.813 18.9258 10.856 18.7834 10.9378C18.641 11.0196 18.5226 11.1374 18.44 11.2794C18.3152 11.4944 18.11 11.6511 17.8697 11.715C17.6294 11.7788 17.3735 11.7445 17.1584 11.6197C16.9434 11.4949 16.7867 11.2897 16.7229 11.0494C16.659 10.809 16.6933 10.5532 16.8181 10.3381C17.066 9.91174 17.4216 9.55804 17.8494 9.3125H17.8475Z" fill="black"/>
</g>
<defs>
<clipPath id="clip0_21_159">
<rect width="30" height="30" fill="white" transform="translate(0.5 0.5)"/>
</clipPath>
</defs>
</svg>
