<svg width="31" height="31" viewBox="0 0 31 31" fill="none" xmlns="http://www.w3.org/2000/svg">
<path fill-rule="evenodd" clip-rule="evenodd" d="M14.2188 4.25243C14.292 4.57565 14.2338 4.91471 14.057 5.19505C13.8803 5.4754 13.5995 5.67408 13.2763 5.74743C13.031 5.80324 12.7879 5.86829 12.5475 5.94243C12.3907 5.99085 12.2258 6.00791 12.0624 5.99263C11.8989 5.97734 11.7401 5.93002 11.595 5.85335C11.4498 5.77668 11.3212 5.67218 11.2164 5.5458C11.1117 5.41943 11.0328 5.27365 10.9844 5.1168C10.936 4.95996 10.9189 4.79511 10.9342 4.63167C10.9495 4.46823 10.9968 4.3094 11.0735 4.16425C11.1501 4.0191 11.2547 3.89047 11.381 3.78571C11.5074 3.68095 11.6532 3.6021 11.81 3.55368C12.11 3.46035 12.4142 3.3791 12.7225 3.30993C12.8827 3.27351 13.0484 3.26901 13.2103 3.29667C13.3721 3.32433 13.527 3.38362 13.6659 3.47115C13.8049 3.55868 13.9252 3.67273 14.0201 3.80678C14.115 3.94084 14.1825 4.09227 14.2188 4.25243ZM16.7813 4.25243C16.8546 3.92924 17.0533 3.64841 17.3337 3.47167C17.614 3.29493 17.953 3.23676 18.2763 3.30993C23.8438 4.57243 28.0013 9.54993 28.0013 15.4999C28.0013 22.4037 22.4038 27.9999 15.5013 27.9999C9.55003 27.9999 4.57253 23.8437 3.31003 18.2762C3.24522 17.9562 3.30821 17.6235 3.48553 17.3493C3.66284 17.0751 3.9404 16.8812 4.25884 16.809C4.57728 16.7368 4.91132 16.7921 5.18952 16.9631C5.46773 17.134 5.66801 17.407 5.74753 17.7237C6.14529 19.4659 7.00265 21.0696 8.2304 22.3681C9.45815 23.6666 11.0114 24.6124 12.7286 25.1071C14.4458 25.6017 16.2642 25.6272 17.9946 25.1808C19.725 24.7344 21.3041 23.8325 22.5677 22.5689C23.8313 21.3053 24.7333 19.7261 25.1796 17.9957C25.626 16.2654 25.6006 14.447 25.1059 12.7298C24.6113 11.0126 23.6655 9.4593 22.367 8.23155C21.0685 7.00381 19.4647 6.14645 17.7225 5.74868C17.3993 5.67507 17.1186 5.47608 16.942 5.19548C16.7655 4.91488 16.7077 4.57566 16.7813 4.25243ZM8.76753 6.39993C8.87931 6.52029 8.96628 6.66151 9.02346 6.81551C9.08064 6.9695 9.1069 7.13326 9.10075 7.29741C9.09459 7.46156 9.05615 7.62289 8.9876 7.77218C8.91906 7.92146 8.82176 8.05577 8.70128 8.16743C8.51628 8.33826 8.33836 8.51576 8.16753 8.69993C7.94045 8.9362 7.62967 9.07386 7.3021 9.08325C6.97454 9.09265 6.65638 8.97303 6.41614 8.75016C6.17589 8.52729 6.03278 8.21899 6.01761 7.89163C6.00244 7.56428 6.11642 7.24407 6.33503 6.99993C6.54753 6.76993 6.76919 6.54785 7.00003 6.33368C7.12039 6.22189 7.26161 6.13492 7.4156 6.07774C7.5696 6.02057 7.73335 5.9943 7.89751 6.00046C8.06166 6.00661 8.22299 6.04506 8.37227 6.1136C8.52156 6.18215 8.65587 6.27944 8.76753 6.39993ZM15.5 7.99993C15.8315 7.99993 16.1495 8.13163 16.3839 8.36605C16.6183 8.60047 16.75 8.91841 16.75 9.24993V14.9824L20.1338 18.3662C20.3615 18.6019 20.4875 18.9177 20.4846 19.2454C20.4818 19.5732 20.3503 19.8867 20.1185 20.1185C19.8868 20.3502 19.5733 20.4817 19.2455 20.4845C18.9178 20.4874 18.602 20.3614 18.3663 20.1337L14.6163 16.3837C14.3818 16.1493 14.2501 15.8314 14.25 15.4999V9.24993C14.25 8.91841 14.3817 8.60047 14.6161 8.36605C14.8506 8.13163 15.1685 7.99993 15.5 7.99993ZM5.11628 10.9849C5.43302 11.0826 5.69799 11.3021 5.85294 11.5951C6.00788 11.8881 6.04011 12.2307 5.94253 12.5474C5.86838 12.7878 5.80334 13.0309 5.74753 13.2762C5.66801 13.5929 5.46773 13.8659 5.18952 14.0368C4.91132 14.2077 4.57728 14.263 4.25884 14.1908C3.9404 14.1187 3.66284 13.9247 3.48553 13.6506C3.30821 13.3764 3.24522 13.0437 3.31003 12.7237C3.38003 12.4153 3.46128 12.1112 3.55378 11.8112C3.65145 11.4944 3.87093 11.2295 4.16394 11.0745C4.45695 10.9196 4.79951 10.8873 5.11628 10.9849Z" fill="black"/>
</svg>
