<svg width="24" height="25" viewBox="0 0 24 25" fill="none" xmlns="http://www.w3.org/2000/svg">
<path d="M14 5.5V4.5C14 3.4 13.1 2.5 12 2.5H8C6.9 2.5 6 3.4 6 4.5V5.5C3.8 5.5 2 7.3 2 9.5V20.5C2 21.6 2.9 22.5 4 22.5H15.2L12.8 20.1C12.2 19.6 11.9 18.8 11.9 18.1V16.5H7V18.5H6V16.5H4V15.5H12V15.3C12 13.8 13.2 12.5 14.8 12.5H18V9.5C18 7.3 16.2 5.5 14 5.5ZM10 13.5L8 11.5L10 9.5L12 11.5L10 13.5ZM12 5.5H8V4.5H12V5.5ZM21.8 18.3L18.2 14.7C18 14.6 17.8 14.5 17.6 14.5H14.8C14.4 14.5 14 14.9 14 15.3V18.1C14 18.3 14.1 18.5 14.2 18.7L17.8 22.3C17.9 22.4 18.1 22.5 18.4 22.5C18.6 22.5 18.8 22.4 19 22.3L21.8 19.5C21.9 19.4 22 19.2 22 18.9C22 18.7 21.9 18.5 21.8 18.3ZM15.4 16.5C15.1 16.5 14.8 16.2 14.8 15.9C14.8 15.6 15.1 15.3 15.4 15.3C15.7 15.3 16 15.6 16 15.9C16 16.2 15.7 16.5 15.4 16.5Z" fill="#1E1E1E"/>
</svg>
