<svg width="25" height="24" viewBox="0 0 25 24" fill="none" xmlns="http://www.w3.org/2000/svg">
<g clip-path="url(#clip0_157_835)">
<path d="M13.0585 2.75V4.5H15.0335C15.3845 4.5 15.7275 4.606 16.0175 4.803L17.7145 5.957C17.7565 5.985 17.8032 5.99933 17.8545 6H21.9565C22.1554 6 22.3462 6.07902 22.4868 6.21967C22.6275 6.36032 22.7065 6.55109 22.7065 6.75C22.7065 6.94891 22.6275 7.13968 22.4868 7.28033C22.3462 7.42098 22.1554 7.5 21.9565 7.5H20.3785L23.7445 15.18C23.8119 15.3336 23.8258 15.5053 23.7841 15.6677C23.7424 15.8301 23.6475 15.9739 23.5145 16.076C23.4145 16.15 23.3112 16.2187 23.2045 16.282C22.9514 16.4343 22.6873 16.5676 22.4145 16.681C21.51 17.0593 20.5389 17.2527 19.5585 17.25C18.5784 17.2543 17.6074 17.0611 16.7035 16.682C16.4307 16.5683 16.1666 16.4346 15.9135 16.282C15.8071 16.221 15.7046 16.1535 15.6065 16.08L15.6015 16.076C15.4685 15.9739 15.3736 15.8301 15.3319 15.6677C15.2902 15.5053 15.3042 15.3336 15.3715 15.18L18.7395 7.5H17.8535C17.5025 7.5 17.1595 7.394 16.8695 7.197L15.1725 6.043C15.1312 6.01501 15.0824 6.00004 15.0325 6H13.0585V20.5H17.5455C17.7444 20.5 17.9352 20.579 18.0758 20.7197C18.2165 20.8603 18.2955 21.0511 18.2955 21.25C18.2955 21.4489 18.2165 21.6397 18.0758 21.7803C17.9352 21.921 17.7444 22 17.5455 22H7.07151C6.8726 22 6.68183 21.921 6.54118 21.7803C6.40053 21.6397 6.32151 21.4489 6.32151 21.25C6.32151 21.0511 6.40053 20.8603 6.54118 20.7197C6.68183 20.579 6.8726 20.5 7.07151 20.5H11.5585V6H9.58351C9.5336 6.00004 9.48484 6.01501 9.44351 6.043L7.74751 7.197C7.45751 7.394 7.11451 7.5 6.76351 7.5H5.87751L9.24551 15.18C9.3107 15.3292 9.32556 15.4956 9.28786 15.654C9.25015 15.8124 9.16193 15.9542 9.03651 16.058C8.95651 16.123 8.87651 16.184 8.72651 16.281C8.47376 16.445 8.20901 16.5898 7.93451 16.714C7.03156 17.125 6.0506 17.3365 5.05851 17.334C4.06642 17.3365 3.08546 17.125 2.18251 16.714C1.90801 16.5898 1.64326 16.445 1.39051 16.281C1.28407 16.2123 1.18095 16.1385 1.08151 16.06C0.956826 15.9552 0.869114 15.8131 0.831305 15.6547C0.793496 15.4962 0.80759 15.3298 0.871511 15.18L4.23851 7.5H2.66151C2.4626 7.5 2.27183 7.42098 2.13118 7.28033C1.99053 7.13968 1.91151 6.94891 1.91151 6.75C1.91151 6.55109 1.99053 6.36032 2.13118 6.21967C2.27183 6.07902 2.4626 6 2.66151 6H6.76351C6.81418 6 6.86118 5.98567 6.90451 5.957L8.59951 4.803C8.88951 4.605 9.23351 4.5 9.58451 4.5H11.5585V2.75C11.5585 2.55109 11.6375 2.36032 11.7782 2.21967C11.9188 2.07902 12.1096 2 12.3085 2C12.5074 2 12.6982 2.07902 12.8388 2.21967C12.9795 2.36032 13.0585 2.55109 13.0585 2.75ZM2.50151 15.198C3.28834 15.6175 4.16682 15.8357 5.05851 15.833C5.9502 15.8357 6.82868 15.6175 7.61551 15.198L5.05851 9.368L2.50151 15.198ZM17.0115 15.174C17.0935 15.214 17.1852 15.256 17.2865 15.3C17.8165 15.523 18.5915 15.75 19.5585 15.75C20.4401 15.7524 21.3108 15.5555 22.1055 15.174L19.5585 9.367L17.0115 15.174Z" fill="#1E1E1E"/>
</g>
<defs>
<clipPath id="clip0_157_835">
<rect width="24" height="24" fill="white" transform="translate(0.308594)"/>
</clipPath>
</defs>
</svg>
