<svg width="25" height="24" viewBox="0 0 25 24" fill="none" xmlns="http://www.w3.org/2000/svg">
<g clip-path="url(#clip0_157_862)">
<path d="M13.2128 2.75V4.5H15.1878C15.5388 4.5 15.8818 4.606 16.1718 4.803L17.8688 5.957C17.9108 5.985 17.9575 5.99933 18.0088 6H22.1108C22.3097 6 22.5005 6.07902 22.6411 6.21967C22.7818 6.36032 22.8608 6.55109 22.8608 6.75C22.8608 6.94891 22.7818 7.13968 22.6411 7.28033C22.5005 7.42098 22.3097 7.5 22.1108 7.5H20.5328L23.8988 15.18C23.9662 15.3336 23.9801 15.5053 23.9384 15.6677C23.8967 15.8301 23.8018 15.9739 23.6688 16.076C23.5688 16.15 23.4655 16.2187 23.3588 16.282C23.1057 16.4343 22.8416 16.5676 22.5688 16.681C21.6643 17.0593 20.6932 17.2527 19.7128 17.25C18.7327 17.2543 17.7617 17.0611 16.8578 16.682C16.585 16.5683 16.3209 16.4346 16.0678 16.282C15.9614 16.221 15.8589 16.1535 15.7608 16.08L15.7558 16.076C15.6228 15.9739 15.5279 15.8301 15.4862 15.6677C15.4445 15.5053 15.4585 15.3336 15.5258 15.18L18.8938 7.5H18.0078C17.6568 7.5 17.3138 7.394 17.0238 7.197L15.3268 6.043C15.2855 6.01501 15.2367 6.00004 15.1868 6H13.2128V20.5H17.6998C17.8987 20.5 18.0895 20.579 18.2301 20.7197C18.3708 20.8603 18.4498 21.0511 18.4498 21.25C18.4498 21.4489 18.3708 21.6397 18.2301 21.7803C18.0895 21.921 17.8987 22 17.6998 22H7.22581C7.0269 22 6.83613 21.921 6.69548 21.7803C6.55483 21.6397 6.47581 21.4489 6.47581 21.25C6.47581 21.0511 6.55483 20.8603 6.69548 20.7197C6.83613 20.579 7.0269 20.5 7.22581 20.5H11.7128V6H9.73781C9.68789 6.00004 9.63914 6.01501 9.59781 6.043L7.90181 7.197C7.61181 7.394 7.26881 7.5 6.91781 7.5H6.03181L9.39981 15.18C9.465 15.3292 9.47986 15.4956 9.44216 15.654C9.40445 15.8124 9.31623 15.9542 9.19081 16.058C9.11081 16.123 9.03081 16.184 8.88081 16.281C8.62805 16.445 8.36331 16.5898 8.08881 16.714C7.18586 17.125 6.2049 17.3365 5.21281 17.334C4.22072 17.3365 3.23975 17.125 2.33681 16.714C2.06231 16.5898 1.79756 16.445 1.54481 16.281C1.43837 16.2123 1.33525 16.1385 1.23581 16.06C1.11112 15.9552 1.02341 15.8131 0.985602 15.6547C0.947793 15.4962 0.961887 15.3298 1.02581 15.18L4.39281 7.5H2.81581C2.6169 7.5 2.42613 7.42098 2.28548 7.28033C2.14483 7.13968 2.06581 6.94891 2.06581 6.75C2.06581 6.55109 2.14483 6.36032 2.28548 6.21967C2.42613 6.07902 2.6169 6 2.81581 6H6.91781C6.96847 6 7.01547 5.98567 7.05881 5.957L8.75381 4.803C9.04381 4.605 9.38781 4.5 9.73881 4.5H11.7128V2.75C11.7128 2.55109 11.7918 2.36032 11.9325 2.21967C12.0731 2.07902 12.2639 2 12.4628 2C12.6617 2 12.8525 2.07902 12.9931 2.21967C13.1338 2.36032 13.2128 2.55109 13.2128 2.75ZM2.65581 15.198C3.44264 15.6175 4.32112 15.8357 5.21281 15.833C6.1045 15.8357 6.98298 15.6175 7.76981 15.198L5.21281 9.368L2.65581 15.198ZM17.1658 15.174C17.2478 15.214 17.3395 15.256 17.4408 15.3C17.9708 15.523 18.7458 15.75 19.7128 15.75C20.5944 15.7524 21.4651 15.5555 22.2598 15.174L19.7128 9.367L17.1658 15.174Z" fill="#1E1E1E"/>
</g>
<defs>
<clipPath id="clip0_157_862">
<rect width="24" height="24" fill="white" transform="translate(0.462891)"/>
</clipPath>
</defs>
</svg>
