<svg width="40" height="40" viewBox="0 0 40 40" fill="none" xmlns="http://www.w3.org/2000/svg">
<path fill-rule="evenodd" clip-rule="evenodd" d="M19.9997 6.66699C21.4247 6.66699 22.8863 6.70366 24.303 6.76366L25.9763 6.84366L27.578 6.93866L29.078 7.04033L30.448 7.14699C31.935 7.26014 33.3343 7.89438 34.3996 8.93799C35.4649 9.98161 36.1277 11.3677 36.2713 12.852L36.338 13.5603L36.463 15.077C36.5797 16.6487 36.6663 18.362 36.6663 20.0003C36.6663 21.6387 36.5797 23.352 36.463 24.9237L36.338 26.4403L36.2713 27.1487C36.1276 28.6333 35.4646 30.0195 34.399 31.0632C33.3334 32.1068 31.9336 32.7409 30.4463 32.8537L29.0797 32.9587L27.5797 33.062L25.9763 33.157L24.303 33.237C22.8694 33.2991 21.4346 33.3313 19.9997 33.3337C18.5647 33.3313 17.13 33.2991 15.6963 33.237L14.023 33.157L12.4213 33.062L10.9213 32.9587L9.55134 32.8537C8.06436 32.7405 6.66501 32.1063 5.59975 31.0627C4.53449 30.019 3.87166 28.633 3.72801 27.1487L3.66134 26.4403L3.53634 24.9237C3.4094 23.2855 3.34157 21.6433 3.33301 20.0003C3.33301 18.362 3.41967 16.6487 3.53634 15.077L3.66134 13.5603L3.72801 12.852C3.8716 11.3679 4.53419 9.98208 5.59911 8.9385C6.66403 7.89492 8.06299 7.26052 9.54967 7.14699L10.918 7.04033L12.418 6.93866L14.0213 6.84366L15.6947 6.76366C17.1288 6.70154 18.5642 6.66931 19.9997 6.66699ZM16.6663 15.9587V24.042C16.6663 24.812 17.4997 25.292 18.1663 24.9087L25.1663 20.867C25.3187 20.7793 25.4452 20.653 25.5332 20.5009C25.6211 20.3487 25.6675 20.1761 25.6675 20.0003C25.6675 19.8246 25.6211 19.6519 25.5332 19.4998C25.4452 19.3476 25.3187 19.2213 25.1663 19.1337L18.1663 15.0937C18.0143 15.0059 17.8418 14.9597 17.6662 14.9597C17.4906 14.9597 17.3181 15.006 17.1661 15.0938C17.014 15.1817 16.8878 15.308 16.8001 15.4601C16.7124 15.6122 16.6662 15.7847 16.6663 15.9603V15.9587Z" fill="white" fill-opacity="0.9"/>
</svg>
