<svg width="542" height="310" viewBox="0 0 542 310" fill="none" xmlns="http://www.w3.org/2000/svg">
<rect x="0.149414" y="2" width="49" height="60" rx="10" fill="#D9D9D9" fill-opacity="0.3"/>
<rect x="72.1494" y="2" width="49" height="60" rx="10" fill="#D9D9D9" fill-opacity="0.5"/>
<rect x="72.1494" y="74" width="49" height="60" rx="10" fill="#5949E7" fill-opacity="0.5"/>
<rect x="24.1494" y="146" width="49" height="60" rx="10" fill="#D9D9D9" fill-opacity="0.5"/>
<rect x="97.1494" y="146" width="49" height="60" rx="10" fill="#D9D9D9" fill-opacity="0.3"/>
<rect x="146.149" y="74" width="49" height="60" rx="10" fill="#D9D9D9" fill-opacity="0.3"/>
<rect x="195.149" y="146" width="49" height="60" rx="10" fill="#D9D9D9" fill-opacity="0.3"/>
<rect x="219.149" width="49" height="60" rx="10" fill="#D9D9D9" fill-opacity="0.3"/>
<rect x="268.149" y="162" width="49" height="60" rx="10" fill="#FFD700" fill-opacity="0.5"/>
<rect x="256.149" y="74" width="49" height="60" rx="10" fill="#D9D9D9" fill-opacity="0.3"/>
<rect x="347.149" y="176" width="49" height="60" rx="10" fill="#D9D9D9" fill-opacity="0.3"/>
<rect x="424.149" y="176" width="49" height="60" rx="10" fill="#D9D9D9" fill-opacity="0.3"/>
<rect x="424.149" y="86" width="49" height="60" rx="10" fill="#D9D9D9" fill-opacity="0.3"/>
<rect x="492.149" y="86" width="49" height="60" rx="10" fill="#D9D9D9" fill-opacity="0.3"/>
<rect x="347.149" y="86" width="49" height="60" rx="10" fill="#D9D9D9" fill-opacity="0.3"/>
<rect x="270.149" y="250" width="49" height="60" rx="10" fill="#D9D9D9" fill-opacity="0.3"/>
<rect x="346.149" y="250" width="49" height="60" rx="10" fill="#D9D9D9" fill-opacity="0.3"/>
<rect x="194.149" y="250" width="49" height="60" rx="10" fill="#D9D9D9" fill-opacity="0.5"/>
</svg>
