<svg width="397" height="332" viewBox="0 0 397 332" fill="none" xmlns="http://www.w3.org/2000/svg">
<rect x="0.149414" y="2" width="49" height="60" rx="10" fill="#D9D9D9" fill-opacity="0.3"/>
<rect x="72.1494" y="2" width="49" height="60" rx="10" fill="#F42323" fill-opacity="0.5"/>
<rect x="72.1494" y="74" width="49" height="60" rx="10" fill="#D9D9D9" fill-opacity="0.3"/>
<rect x="24.1494" y="146" width="49" height="60" rx="10" fill="#4EF81A" fill-opacity="0.5"/>
<rect x="97.1494" y="146" width="49" height="60" rx="10" fill="#D9D9D9" fill-opacity="0.3"/>
<rect x="146.149" y="74" width="49" height="60" rx="10" fill="#D9D9D9" fill-opacity="0.3"/>
<rect x="195.149" y="146" width="49" height="60" rx="10" fill="#D9D9D9" fill-opacity="0.3"/>
<rect x="219.149" width="49" height="60" rx="10" fill="#D9D9D9" fill-opacity="0.3"/>
<rect x="268.149" y="162" width="49" height="60" rx="10" fill="#D9D9D9" fill-opacity="0.3"/>
<rect x="256.149" y="74" width="49" height="60" rx="10" fill="#D9D9D9" fill-opacity="0.3"/>
<rect x="347.149" y="176" width="49" height="60" rx="10" fill="#D9D9D9" fill-opacity="0.3"/>
<rect x="270.149" y="250" width="49" height="60" rx="10" fill="#D9D9D9" fill-opacity="0.3"/>
<rect x="207.149" y="272" width="49" height="60" rx="10" fill="#2E58FF" fill-opacity="0.5"/>
</svg>
