<svg width="396" height="332" viewBox="0 0 396 332" fill="none" xmlns="http://www.w3.org/2000/svg">
<rect x="396" y="330" width="49" height="60" rx="10" transform="rotate(-180 396 330)" fill="#D9D9D9" fill-opacity="0.3"/>
<rect x="324" y="330" width="49" height="60" rx="10" transform="rotate(-180 324 330)" fill="#F42323" fill-opacity="0.5"/>
<rect x="324" y="258" width="49" height="60" rx="10" transform="rotate(-180 324 258)" fill="#D9D9D9" fill-opacity="0.3"/>
<rect x="372" y="186" width="49" height="60" rx="10" transform="rotate(-180 372 186)" fill="#4EF81A" fill-opacity="0.5"/>
<rect x="299" y="186" width="49" height="60" rx="10" transform="rotate(-180 299 186)" fill="#D9D9D9" fill-opacity="0.3"/>
<rect x="250" y="258" width="49" height="60" rx="10" transform="rotate(-180 250 258)" fill="#D9D9D9" fill-opacity="0.3"/>
<rect x="201" y="186" width="49" height="60" rx="10" transform="rotate(-180 201 186)" fill="#D9D9D9" fill-opacity="0.3"/>
<rect x="177" y="332" width="49" height="60" rx="10" transform="rotate(-180 177 332)" fill="#D9D9D9" fill-opacity="0.3"/>
<rect x="128" y="170" width="49" height="60" rx="10" transform="rotate(-180 128 170)" fill="#D9D9D9" fill-opacity="0.3"/>
<rect x="140" y="258" width="49" height="60" rx="10" transform="rotate(-180 140 258)" fill="#D9D9D9" fill-opacity="0.3"/>
<rect x="49" y="156" width="49" height="60" rx="10" transform="rotate(-180 49 156)" fill="#D9D9D9" fill-opacity="0.3"/>
<rect x="126" y="82" width="49" height="60" rx="10" transform="rotate(-180 126 82)" fill="#D9D9D9" fill-opacity="0.3"/>
<rect x="189" y="60" width="49" height="60" rx="10" transform="rotate(-180 189 60)" fill="#2E58FF" fill-opacity="0.5"/>
</svg>
